<svg xmlns="http://www.w3.org/2000/svg" viewBox="0 0 1280 720" role="img" aria-label="نظرة نحو الأفق" direction="rtl"><defs><linearGradient id="bg" x1="0" x2="1" y1="0" y2="1"><stop offset="0" stop-color="hsl(260,45%,15%)"/><stop offset="0.55" stop-color="hsl(298,42%,23%)"/><stop offset="1" stop-color="#0E0D10"/></linearGradient><radialGradient id="lamp" cx="68%" cy="22%" r="52%"><stop offset="0" stop-color="hsl(338,74%,72%)" stop-opacity="0.62"/><stop offset="0.42" stop-color="hsl(338,70%,52%)" stop-opacity="0.20"/><stop offset="1" stop-color="transparent"/></radialGradient><filter id="soft"><feGaussianBlur stdDeviation="18"/></filter></defs><rect width="1280" height="720" fill="url(#bg)"/><rect width="1280" height="720" fill="url(#lamp)"/><path d="M0 590 C214 500 374 536 536 482 C746 412 878 318 1280 372 L1280 720 L0 720 Z" fill="rgba(14,13,16,0.50)"/><rect x="832" y="128" width="252" height="312" rx="18" fill="rgba(247,243,236,0.14)"/><rect x="866" y="162" width="184" height="244" rx="12" fill="rgba(14,13,16,0.58)"/><circle cx="942" cy="252" r="5" fill="hsl(338,76%,74%)"/><circle cx="1018" cy="198" r="4" fill="hsl(338,76%,74%)"/><circle cx="906" cy="334" r="4" fill="hsl(338,76%,74%)"/><circle cx="984" cy="310" r="6" fill="hsl(338,76%,74%)"/><circle cx="548" cy="396" r="54" fill="rgba(247,243,236,0.16)" filter="url(#soft)"/><path d="M510 542 C516 460 586 460 594 542" fill="none" stroke="rgba(247,243,236,0.58)" stroke-width="28" stroke-linecap="round"/><path d="M642 522 C742 502 806 470 874 404" fill="none" stroke="hsl(338,76%,72%)" stroke-width="12" stroke-linecap="round" opacity="0.56"/><g opacity="0.72"><rect x="64" y="58" width="156" height="42" rx="21" fill="rgba(14,13,16,0.42)"/><text x="142" y="86" text-anchor="middle" font-family="Georgia,serif" font-size="24" fill="#C9A86A">Scene 3</text></g><text x="640" y="650" text-anchor="middle" font-family="Georgia,serif" font-size="30" fill="rgba(247,243,236,0.72)">نظرة نحو الأفق</text></svg>